<svg width="65" height="21" viewBox="0 0 65 21" fill="none" xmlns="http://www.w3.org/2000/svg">
<g clip-path="url(#clip0_186638_47568)">
<path d="M7.85407 0.0136719H2.70326C2.6954 0.0136958 2.68781 0.0164789 2.6818 0.0215347C2.67578 0.0265905 2.67174 0.0335976 2.67037 0.0413317L2.03973 3.61771C2.03861 3.62412 2.0389 3.6307 2.04057 3.63699C2.04225 3.64328 2.04527 3.64912 2.04943 3.6541C2.05359 3.65908 2.05879 3.66308 2.06465 3.66582C2.07052 3.66856 2.07691 3.66997 2.08338 3.66995L7.20715 3.67272" stroke="#7FE3EF" stroke-width="0.0614656"/>
<path d="M7.2072 3.67303L5.14103 15.3361C5.14036 15.34 5.14052 15.3439 5.14153 15.3477C5.14253 15.3515 5.14434 15.355 5.14683 15.358C5.14932 15.361 5.15244 15.3634 5.15595 15.365C5.15946 15.3667 5.16328 15.3675 5.16715 15.3675H9.43594C9.44583 15.3675 9.45542 15.364 9.463 15.3576C9.47059 15.3511 9.4757 15.3423 9.47743 15.3324L11.5353 3.66504" stroke="#CEF19B" stroke-width="0.0614656"/>
<path d="M11.5352 3.66498C11.5393 3.67256 11.5442 3.67389 11.5499 3.66898C13.1785 3.66836 14.8872 3.66846 16.6758 3.66928C16.686 3.66929 16.6959 3.66569 16.7037 3.65911C16.7115 3.65254 16.7167 3.64341 16.7186 3.63333C17.1082 1.42077 17.3128 0.25989 17.3323 0.150686C17.3413 0.100079 17.3437 0.0596139 17.3394 0.0292908C17.3388 0.0249261 17.3366 0.0209281 17.3333 0.0180436C17.3301 0.0151592 17.3259 0.0135858 17.3215 0.0136173L12.1781 0.0126953" stroke="#7FE3EF" stroke-width="0.0614656"/>
<path d="M12.1796 0.0126953L7.85547 0.0139244" stroke="#B6EB95" stroke-width="0.0614656"/>
<path d="M12.1781 0.0126953L11.5352 3.66498" stroke="#37CF84" stroke-width="0.0614656"/>
<path d="M11.536 3.66504L7.21094 3.66596" stroke="#86DD31" stroke-width="0.0614656"/>
<path d="M7.21094 3.66565L7.85479 0.0136719" stroke="#37CF84" stroke-width="0.0614656"/>
<path d="M7.20978 3.66602C7.20887 3.66822 7.20795 3.67033 7.20703 3.67235" stroke="#4FD58B" stroke-width="0.0614656"/>
<path d="M36.2203 3.87109L34.2036 15.332C34.2028 15.3364 34.203 15.3408 34.2042 15.3451C34.2054 15.3494 34.2075 15.3534 34.2104 15.3568C34.2133 15.3602 34.2169 15.3629 34.221 15.3648C34.2251 15.3667 34.2295 15.3676 34.234 15.3676H38.7735C38.7806 15.3676 38.7875 15.3651 38.7929 15.3606C38.7984 15.356 38.8021 15.3497 38.8034 15.3427C39.3203 12.4135 39.6036 10.8062 39.6534 10.5208C39.6952 10.2798 39.7533 10.0253 39.7911 9.77702C39.8222 9.57295 39.8528 9.3864 39.8827 9.21737C40.0997 7.99257 40.2169 7.32894 40.2343 7.2265C40.2761 6.98064 40.3385 6.7314 40.3723 6.48861C40.3964 6.3163 40.4262 6.13129 40.4617 5.93357C40.5668 5.34821 40.6831 4.69012 40.8105 3.9593C40.8177 3.91811 40.8317 3.89332 40.8526 3.88492" stroke="#FED994" stroke-width="0.0614656"/>
<path d="M40.8516 3.88547L45.5859 3.88086" stroke="#CEF19B" stroke-width="0.0614656"/>
<path d="M45.5859 3.88086C45.614 3.88926 45.6358 3.89971 45.6514 3.91221" stroke="#C6E495" stroke-width="0.0614656"/>
<path d="M45.6523 3.91211L47.1828 5.78282" stroke="#CEC1E9" stroke-width="0.0614656"/>
<path d="M47.1821 5.7832C47.1788 5.78437 47.1754 5.78545 47.1719 5.78642" stroke="#B7BBE6" stroke-width="0.0614656"/>
<path d="M47.1723 5.78613C44.9882 7.63645 42.8031 9.48544 40.6169 11.3331C40.562 11.3796 40.5022 11.4371 40.4375 11.5055C40.4356 11.5075 40.4343 11.5101 40.4338 11.5128C40.4333 11.5155 40.4336 11.5184 40.4347 11.5209C40.4358 11.5235 40.4376 11.5257 40.4399 11.5272C40.4421 11.5288 40.4448 11.5297 40.4476 11.5298C40.5143 11.5322 40.5828 11.5212 40.6532 11.5215C42.1974 11.525 44.1625 11.5255 46.5484 11.523C46.5935 11.5228 46.638 11.5041 46.6821 11.4668C47.0945 11.1158 48.1114 10.2559 49.7329 8.88707" stroke="#7FE3EF" stroke-width="0.0614656"/>
<path d="M49.7324 8.88711L50.4586 8.27768C50.4725 8.26617 50.4818 8.25002 50.4848 8.23219L51.2497 3.88965" stroke="#B7BBE6" stroke-width="0.0614656"/>
<path d="M51.2491 3.88984C51.3045 3.6784 51.3271 3.47955 51.3171 3.29331C51.3159 3.26976 51.3071 3.24715 51.2922 3.22877L48.6891 0.0408602C48.6815 0.0314494 48.6719 0.0238586 48.661 0.0186463C48.6501 0.013434 48.6382 0.0107331 48.6261 0.0107422L42.4746 0.0116642" stroke="#C6E495" stroke-width="0.0614656"/>
<path d="M42.4747 0.0117188L41.5195 0.0154065" stroke="#CEF19B" stroke-width="0.0614656"/>
<path d="M41.5189 0.0153865L36.9228 0.00585938C36.9181 0.0058639 36.9136 0.00753163 36.91 0.0105681C36.9064 0.0136045 36.904 0.0178142 36.9032 0.0224549L36.2188 3.87174" stroke="#D1E980" stroke-width="0.0614656"/>
<path d="M41.52 0.015625C41.5223 0.0729929 41.5125 0.130053 41.4908 0.186806C41.4877 0.194776 41.4855 0.203012 41.4841 0.211393L40.8356 3.86491C40.8352 3.86754 40.8342 3.87005 40.8328 3.87228L40.8242 3.88458" stroke="#A1DB1C" stroke-width="0.0614656"/>
<path d="M40.8231 3.88369C40.7496 3.88697 40.675 3.88871 40.5994 3.88892C39.2064 3.89199 37.8134 3.89332 36.4204 3.89291C36.3556 3.89291 36.2884 3.88564 36.2188 3.87109" stroke="#D1C315" stroke-width="0.0614656"/>
<path d="M40.8522 3.88495C40.8436 3.88126 40.8343 3.88085 40.8242 3.88372" stroke="#CECB30" stroke-width="0.0614656"/>
<path d="M51.2503 3.88965L49.8535 3.89118" stroke="#7FA07C" stroke-width="0.0614656"/>
<path d="M49.8532 3.89083C48.4725 3.89042 47.0918 3.89062 45.711 3.89144C45.6891 3.89144 45.6696 3.89821 45.6523 3.91173" stroke="#96A67F" stroke-width="0.0614656"/>
<path d="M45.586 3.88098L45.5454 3.80077C45.5428 3.79565 45.5397 3.79082 45.5362 3.78632C45.2817 3.45974 44.9603 3.06144 44.5718 2.59143C44.2364 2.18555 43.6423 1.46067 42.7893 0.416777C42.6242 0.214555 42.5193 0.0795358 42.4746 0.0117188" stroke="#96D631" stroke-width="0.0614656"/>
<path d="M49.7325 8.88707L47.2001 5.79781C47.1956 5.79227 47.1892 5.78865 47.1823 5.78767L47.1719 5.78613" stroke="#389FD5" stroke-width="0.0614656"/>
<path d="M47.1816 5.78321C47.8461 5.21629 48.5151 4.6505 49.1888 4.08583C49.2681 4.01945 49.3163 3.93985 49.4224 3.93063C49.4277 3.93017 49.4328 3.92811 49.437 3.92471C49.4412 3.92131 49.4442 3.91673 49.4457 3.91158C49.4461 3.91014 49.4464 3.90922 49.4466 3.90881C49.449 3.90402 49.4528 3.89999 49.4574 3.89717C49.462 3.89435 49.4673 3.89285 49.4728 3.89283L49.852 3.8916" stroke="#877DCF" stroke-width="0.0614656"/>
<path d="M56.7843 0.0168626C56.2339 0.0201407 55.684 0.0211653 55.1345 0.019936C54.7854 0.0193214 54.4412 -0.0061871 54.0835 0.0220871C54.0761 0.0225904 54.0691 0.0255522 54.0636 0.0305051C54.0581 0.035458 54.0544 0.0421199 54.053 0.0494393L53.3812 3.85877C53.3806 3.86197 53.3808 3.86525 53.3816 3.86839C53.3824 3.87154 53.3839 3.87446 53.386 3.87695C53.3881 3.87944 53.3907 3.88145 53.3936 3.88282C53.3966 3.8842 53.3998 3.8849 53.403 3.88489L56.1395 3.8852" stroke="#CEF19B" stroke-width="0.0614656"/>
<path d="M56.1385 3.88574C56.1379 3.89004 56.1373 3.89433 56.1367 3.89862" stroke="#FECB85" stroke-width="0.0614656"/>
<path d="M56.1379 3.89844L54.8047 11.4882" stroke="#FED994" stroke-width="0.0614656"/>
<path d="M54.8047 11.4883C54.8053 11.4889 54.8059 11.4895 54.8066 11.4901" stroke="#FECB85" stroke-width="0.0614656"/>
<path d="M54.8079 11.4922L52.0493 11.4965C52.0446 11.4965 52.04 11.4982 52.0364 11.5012C52.0328 11.5042 52.0304 11.5084 52.0296 11.5131L51.3538 15.3436C51.3533 15.3465 51.3534 15.3494 51.3542 15.3522C51.3549 15.3551 51.3563 15.3577 51.3581 15.3599C51.36 15.3621 51.3623 15.3639 51.3649 15.3651C51.3675 15.3664 51.3703 15.367 51.3732 15.367L54.1127 15.3676" stroke="#F9B8B9" stroke-width="0.0614656"/>
<path d="M54.1113 15.3672H58.696" stroke="#FECB85" stroke-width="0.0614656"/>
<path d="M58.6973 15.3673L61.2005 15.3664C61.2065 15.3664 61.2123 15.3643 61.2169 15.3604C61.2215 15.3565 61.2246 15.3511 61.2257 15.3452L61.8993 11.5263C61.9001 11.5221 61.8999 11.5178 61.8988 11.5137C61.8978 11.5096 61.8958 11.5058 61.893 11.5025C61.8903 11.4993 61.8869 11.4967 61.883 11.4949C61.8792 11.4931 61.875 11.4922 61.8707 11.4922H59.3795" stroke="#F9B8B9" stroke-width="0.0614656"/>
<path d="M59.3789 11.4924L60.7146 3.89648" stroke="#FED994" stroke-width="0.0614656"/>
<path d="M60.7148 3.89606L60.7382 3.87793" stroke="#FECB85" stroke-width="0.0614656"/>
<path d="M60.7383 3.87836L63.2083 3.88727C63.2191 3.88728 63.2296 3.88345 63.2378 3.87648C63.2461 3.8695 63.2516 3.85983 63.2535 3.84916C63.4245 2.87452 63.6375 1.66898 63.8924 0.232524C63.9047 0.162863 63.908 0.0961728 63.9022 0.0324535C63.902 0.0293524 63.9011 0.0263288 63.8997 0.0235599C63.8983 0.020791 63.8963 0.0183325 63.8939 0.0163288C63.8915 0.014325 63.8887 0.0128164 63.8857 0.0118911C63.8827 0.0109659 63.8795 0.0106427 63.8764 0.0109406C63.8225 0.0160627 63.7755 0.0188283 63.7353 0.0192381C62.9609 0.0257944 62.1871 0.0223115 61.4141 0.00878906" stroke="#CEF19B" stroke-width="0.0614656"/>
<path d="M61.4131 0.00833448C59.9533 0.000139061 58.4938 -0.00201244 57.0346 0.00188038C56.9496 0.00208527 56.8658 0.00710513 56.7832 0.0169396" stroke="#FECB85" stroke-width="0.0614656"/>
<path d="M61.4144 0.00878906C61.4044 0.0450538 61.3977 0.0735328 61.3945 0.0942262C61.3691 0.252808 61.3413 0.417638 61.3112 0.588717C61.1262 1.64244 60.9404 2.69617 60.754 3.74989C60.7472 3.788 60.7159 3.82888 60.7386 3.87836" stroke="#CEBD21" stroke-width="0.0614656"/>
<path d="M60.7141 3.89648L56.1367 3.89925" stroke="#FEA51A" stroke-width="0.0614656"/>
<path d="M56.1387 3.88494C56.1555 3.78188 56.1724 3.68108 56.1894 3.58253C56.3824 2.47266 56.5768 1.36301 56.7727 0.253552C56.7879 0.16791 56.7914 0.0889261 56.7834 0.0166016" stroke="#CEBD21" stroke-width="0.0614656"/>
<path d="M59.3799 11.4922L59.3633 11.5561" stroke="#F9924D" stroke-width="0.0614656"/>
<path d="M59.363 11.5556L59.3587 11.5212C59.3582 11.5168 59.3562 11.5127 59.3532 11.5096C59.3501 11.5065 59.3461 11.5045 59.3418 11.504C59.2584 11.4939 59.2015 11.4889 59.1712 11.4889C57.7933 11.4901 56.4855 11.4902 55.2475 11.4892C55.2307 11.4892 55.1579 11.4904 55.029 11.4929C54.9545 11.4943 54.8797 11.4928 54.8047 11.4883" stroke="#FEA51A" stroke-width="0.0614656"/>
<path d="M59.3629 11.5557L58.6973 15.3668" stroke="#F9843F" stroke-width="0.0614656"/>
<path d="M54.8065 11.4922L54.1113 15.3676" stroke="#F9843F" stroke-width="0.0614656"/>
<path d="M18.4525 5.70801C18.4435 5.72911 18.437 5.75124 18.4329 5.77439C17.7791 9.47175 17.4224 11.4858 17.3627 11.8165C17.3521 11.8763 17.3574 11.9192 17.3787 11.9452C18.5708 13.3919 19.5013 14.5229 20.1705 15.3381C20.1779 15.3471 20.1872 15.3543 20.1977 15.3592C20.2082 15.3642 20.2197 15.3667 20.2313 15.3667L21.338 15.3664" stroke="#D1E980" stroke-width="0.0614656"/>
<path d="M21.3379 15.3665L21.8225 15.3662" stroke="#FED994" stroke-width="0.0614656"/>
<path d="M21.8223 15.3665L26.364 15.3662" stroke="#FAB2A6" stroke-width="0.0614656"/>
<path d="M26.3633 15.3662L26.8913 15.3665" stroke="#F9B8B9" stroke-width="0.0614656"/>
<path d="M26.8926 15.3664C27.2216 15.3681 27.5477 15.3682 27.8708 15.3667C27.9879 15.3661 28.0924 15.2493 28.1787 15.1756C28.9997 14.4751 30.2801 13.3847 32.0197 11.9044C32.1301 11.8106 32.1359 11.7704 32.1596 11.6358C32.4464 10.0055 32.7955 8.02671 33.2069 5.69942C33.2096 5.68466 33.211 5.64912 33.2112 5.59277" stroke="#F3ABB0" stroke-width="0.0614656"/>
<path d="M33.2104 5.59276C33.5296 3.79838 33.8497 1.99077 34.1708 0.169958C34.1775 0.131849 34.175 0.085443 34.1631 0.0307386C34.1622 0.0267268 34.16 0.0231301 34.1568 0.0205549C34.1537 0.0179797 34.1497 0.0165837 34.1456 0.0166017H29.65C29.6384 0.0165793 29.6273 0.0206399 29.6184 0.0280646C29.6096 0.0354893 29.6037 0.045799 29.6017 0.0571688C29.0108 3.40766 28.4188 6.76747 27.8257 10.1366C27.8234 10.1495 27.8151 10.1714 27.8008 10.2024" stroke="#CEC1E9" stroke-width="0.0614656"/>
<path d="M27.8008 10.2021C27.7897 10.214 27.7826 10.226 27.7793 10.2381" stroke="#F3ABB0" stroke-width="0.0614656"/>
<path d="M27.779 10.2383L24.4805 13.0506" stroke="#F9B8B9" stroke-width="0.0614656"/>
<path d="M24.4805 13.0503L24.4609 13.04" stroke="#FAB2A6" stroke-width="0.0614656"/>
<path d="M24.4599 13.0399L22.248 10.3213" stroke="#FED994" stroke-width="0.0614656"/>
<path d="M22.2476 10.3218L22.2381 10.2573C22.2364 10.2475 22.2365 10.2376 22.2384 10.2278L24.0319 0.0598458C24.0328 0.0550401 24.0326 0.0501066 24.0313 0.0453905C24.03 0.0406744 24.0277 0.0362892 24.0246 0.0325424C24.0214 0.0287955 24.0175 0.0257773 24.013 0.0236985C24.0085 0.0216197 24.0037 0.0205308 23.9988 0.0205078H19.489C19.4798 0.0205018 19.4709 0.0237285 19.4638 0.0296255C19.4567 0.0355225 19.452 0.0437154 19.4503 0.0527769L18.4512 5.70884" stroke="#CEF19B" stroke-width="0.0614656"/>
<path d="M22.2478 10.3213C22.2392 10.3215 22.2269 10.3256 22.2109 10.3336" stroke="#CECB30" stroke-width="0.0614656"/>
<path d="M22.2107 10.3337C22.216 10.3029 22.2113 10.2807 22.1966 10.267C22.1831 10.2545 22.1759 10.2476 22.1751 10.2464C22.0859 10.1267 22.0173 10.034 21.9692 9.96825C21.8966 9.86867 21.8072 9.77985 21.743 9.69104C21.678 9.6015 21.6221 9.53133 21.5752 9.48051C21.5221 9.42315 21.407 9.28413 21.2297 9.06347C21.1281 8.93706 21.0147 8.79722 20.8895 8.64397C20.4382 8.0918 19.861 7.38628 19.158 6.5274C19.0554 6.40201 18.998 6.33143 18.9859 6.31565C18.9286 6.24128 18.8687 6.16854 18.8064 6.09745C18.7149 5.99275 18.6115 5.86664 18.4964 5.71913C18.4902 5.71134 18.4835 5.70683 18.4764 5.7056C18.468 5.70438 18.4596 5.7053 18.4512 5.70837" stroke="#A1DB1C" stroke-width="0.0614656"/>
<path d="M22.2119 10.334C22.1912 10.5065 22.176 10.6209 22.1661 10.6773C21.8887 12.2389 21.6126 13.8022 21.3379 15.3671" stroke="#D1C315" stroke-width="0.0614656"/>
<path d="M24.4606 13.04C24.4639 13.0581 24.4597 13.072 24.448 13.0818C23.0464 14.2771 22.2493 14.9604 22.0567 15.1317C21.976 15.2036 21.891 15.2705 21.8019 15.3324C21.7995 15.3341 21.7975 15.3364 21.7963 15.3391C21.7951 15.3418 21.7947 15.3447 21.7951 15.3477C21.7954 15.3506 21.7966 15.3534 21.7985 15.3557C21.8003 15.358 21.8028 15.3597 21.8056 15.3607L21.8225 15.3665" stroke="#FA8C3B" stroke-width="0.0614656"/>
<path d="M26.3635 15.3662L24.4805 13.0508" stroke="#F56B60" stroke-width="0.0614656"/>
<path d="M26.8926 15.3664C27.1856 13.7125 27.4775 12.0602 27.7685 10.4095C27.7795 10.3476 27.7834 10.2905 27.7801 10.2383" stroke="#EE646A" stroke-width="0.0614656"/>
<path d="M33.2104 5.59277C31.5231 7.03107 29.8453 8.46578 28.177 9.8969C28.0655 9.99238 27.9554 10.0893 27.8466 10.1876C27.8394 10.194 27.8241 10.1989 27.8008 10.2024" stroke="#C36D9A" stroke-width="0.0614656"/>
<path d="M12.1789 0.0126953L11.536 3.66498L7.21094 3.6659L7.85479 0.0139244L12.1789 0.0126953Z" fill="#6ED72A"/>
<path d="M41.5189 0.0153865C41.5212 0.0727544 41.5115 0.129815 41.4897 0.186568C41.4867 0.194537 41.4844 0.202773 41.483 0.211154L40.8345 3.86467C40.8341 3.8673 40.8332 3.86981 40.8317 3.87205L40.8231 3.88434C40.7496 3.88762 40.675 3.88936 40.5994 3.88956C39.2064 3.89264 37.8134 3.89397 36.4204 3.89356C36.3556 3.89356 36.2884 3.88629 36.2188 3.87174L36.9032 0.0224549C36.904 0.0178142 36.9064 0.0136045 36.91 0.0105681C36.9136 0.00753163 36.9181 0.0058639 36.9228 0.00585938L41.5189 0.0153865Z" fill="#A3D301"/>
<path d="M61.4132 0.00833448C61.4032 0.0445992 61.3965 0.0730782 61.3933 0.0937716C61.3678 0.252353 61.3401 0.417183 61.31 0.588262C61.125 1.64199 60.9392 2.69571 60.7528 3.74944C60.746 3.78755 60.7147 3.82842 60.7374 3.8779L60.7141 3.89603L56.1367 3.8988C56.1373 3.89429 56.1379 3.88979 56.1386 3.88528C56.1554 3.78222 56.1723 3.68142 56.1893 3.58287C56.3823 2.473 56.5767 1.36334 56.7726 0.25389C56.7877 0.168248 56.7913 0.0892642 56.7833 0.0169396C56.8659 0.00710513 56.9497 0.00208527 57.0347 0.00188038C58.4939 -0.00201244 59.9534 0.000139061 61.4132 0.00833448Z" fill="#FE960B"/>
<path d="M7.85407 0.0136719L7.21022 3.66565C7.2092 3.66811 7.20817 3.67047 7.20715 3.67272L2.08338 3.66995C2.07691 3.66997 2.07052 3.66856 2.06465 3.66582C2.05879 3.66308 2.05359 3.65908 2.04943 3.6541C2.04527 3.64912 2.04225 3.64328 2.04057 3.63699C2.0389 3.6307 2.03861 3.62412 2.03973 3.61771L2.67037 0.0413317C2.67174 0.0335976 2.67578 0.0265905 2.6818 0.0215347C2.68781 0.0164789 2.6954 0.0136958 2.70326 0.0136719H7.85407Z" fill="#00C7DE"/>
<path d="M11.5352 3.66498L12.1781 0.0126953L17.3215 0.0136173C17.3259 0.0135858 17.3301 0.0151592 17.3333 0.0180436C17.3366 0.0209281 17.3388 0.0249261 17.3394 0.0292908C17.3437 0.0596139 17.3413 0.100079 17.3323 0.150686C17.3128 0.25989 17.1082 1.42077 16.7186 3.63333C16.7167 3.64341 16.7115 3.65254 16.7037 3.65911C16.6959 3.66569 16.686 3.66929 16.6758 3.66928C14.8872 3.66846 13.1785 3.66836 11.5499 3.66898C11.5442 3.67389 11.5393 3.67256 11.5352 3.66498Z" fill="#00C7DE"/>
<path d="M22.2476 10.3218C22.239 10.322 22.2267 10.3261 22.2107 10.3341C22.216 10.3034 22.2113 10.2812 22.1966 10.2674C22.1831 10.2549 22.1759 10.2481 22.1751 10.2468C22.0859 10.1272 22.0173 10.0345 21.9692 9.96872C21.8966 9.86914 21.8072 9.78032 21.743 9.69151C21.678 9.60197 21.6221 9.5318 21.5752 9.48099C21.5221 9.42362 21.407 9.28461 21.2297 9.06394C21.1281 8.93753 21.0147 8.79769 20.8895 8.64444C20.4382 8.09227 19.861 7.38675 19.158 6.52787C19.0554 6.40248 18.998 6.3319 18.9859 6.31612C18.9286 6.24175 18.8687 6.16902 18.8064 6.09792C18.7149 5.99322 18.6115 5.86712 18.4964 5.7196C18.4902 5.71181 18.4835 5.70731 18.4764 5.70608C18.468 5.70485 18.4596 5.70577 18.4512 5.70884L19.4503 0.0527769C19.452 0.0437154 19.4567 0.0355225 19.4638 0.0296255C19.4709 0.0237285 19.4798 0.0205018 19.489 0.0205078H23.9988C24.0037 0.0205308 24.0085 0.0216197 24.013 0.0236985C24.0175 0.0257773 24.0214 0.0287955 24.0246 0.0325424C24.0277 0.0362892 24.03 0.0406744 24.0313 0.0453905C24.0326 0.0501066 24.0328 0.0550401 24.0319 0.0598458L22.2384 10.2278C22.2365 10.2376 22.2364 10.2475 22.2381 10.2573L22.2476 10.3218Z" fill="#9EE337"/>
<path d="M33.2104 5.59276C31.5231 7.03106 29.8453 8.46577 28.177 9.89689C28.0655 9.99237 27.9554 10.0893 27.8466 10.1876C27.8394 10.194 27.8241 10.1989 27.8008 10.2024C27.8151 10.1714 27.8234 10.1495 27.8257 10.1366C28.4188 6.76747 29.0108 3.40766 29.6017 0.0571688C29.6037 0.045799 29.6096 0.0354893 29.6184 0.0280646C29.6273 0.0206399 29.6384 0.0165793 29.65 0.0166017H34.1456C34.1497 0.0165837 34.1537 0.0179797 34.1568 0.0205549C34.16 0.0231301 34.1622 0.0267268 34.1631 0.0307386C34.175 0.085443 34.1775 0.131849 34.1708 0.169958C33.8497 1.99077 33.5296 3.79838 33.2104 5.59276Z" fill="#9E83D2"/>
<path d="M51.2491 3.88984L49.8523 3.89137C48.4716 3.89096 47.0909 3.89117 45.7102 3.89199C45.6882 3.89199 45.6687 3.89875 45.6515 3.91227C45.6359 3.89977 45.6141 3.88932 45.586 3.88092L45.5454 3.80071C45.5428 3.7956 45.5397 3.79077 45.5362 3.78627C45.2817 3.45968 44.9603 3.06138 44.5718 2.59138C44.2364 2.1855 43.6423 1.46061 42.7893 0.416722C42.6242 0.2145 42.5193 0.0794812 42.4746 0.0116642L48.6261 0.0107422C48.6382 0.0107331 48.6501 0.013434 48.661 0.0186463C48.6719 0.0238586 48.6815 0.0314494 48.6891 0.0408602L51.2922 3.22877C51.3071 3.24715 51.3159 3.26976 51.3171 3.29331C51.3271 3.47955 51.3045 3.6784 51.2491 3.88984Z" fill="#8DC92B"/>
<path d="M56.7843 0.0168626C56.7923 0.0891871 56.7887 0.168171 56.7735 0.253813C56.5776 1.36327 56.3832 2.47293 56.1902 3.58279C56.1732 3.68134 56.1563 3.78214 56.1395 3.8852L53.403 3.88489C53.3998 3.8849 53.3966 3.8842 53.3936 3.88282C53.3907 3.88145 53.3881 3.87944 53.386 3.87695C53.3839 3.87446 53.3824 3.87154 53.3816 3.86839C53.3808 3.86525 53.3806 3.86197 53.3812 3.85877L54.053 0.0494393C54.0544 0.0421199 54.0581 0.035458 54.0636 0.0305051C54.0691 0.0255522 54.0761 0.0225904 54.0835 0.0220871C54.4412 -0.0061871 54.7854 0.0193214 55.1345 0.019936C55.684 0.0211653 56.2339 0.0201407 56.7843 0.0168626Z" fill="#9EE337"/>
<path d="M60.7386 3.87836C60.7159 3.82888 60.7472 3.788 60.754 3.74989C60.9404 2.69617 61.1262 1.64244 61.3112 0.588717C61.3413 0.417638 61.3691 0.252807 61.3945 0.0942262C61.3977 0.0735328 61.4044 0.0450538 61.4144 0.00878906C62.1875 0.0223115 62.9612 0.0257944 63.7357 0.0192381C63.7758 0.0188283 63.8229 0.0160627 63.8767 0.0109406C63.8799 0.0106427 63.883 0.0109659 63.8861 0.0118911C63.8891 0.0128164 63.8918 0.014325 63.8942 0.0163288C63.8967 0.0183325 63.8986 0.020791 63.9001 0.0235599C63.9015 0.0263288 63.9023 0.0293524 63.9026 0.0324535C63.9083 0.0961728 63.905 0.162863 63.8927 0.232524C63.6379 1.66898 63.4249 2.87452 63.2538 3.84916C63.252 3.85983 63.2464 3.8695 63.2382 3.87648C63.2299 3.88345 63.2194 3.88728 63.2086 3.88727L60.7386 3.87836Z" fill="#9EE337"/>
<path d="M42.4752 0.0117188C42.5198 0.0795358 42.6248 0.214555 42.7899 0.416777C43.6428 1.46067 44.237 2.18555 44.5724 2.59143C44.9609 3.06144 45.2823 3.45973 45.5368 3.78632C45.5403 3.79082 45.5433 3.79565 45.546 3.80077L45.5866 3.88098L40.8522 3.88559C40.8436 3.8819 40.8343 3.88149 40.8242 3.88436L40.8328 3.87207C40.8342 3.86983 40.8352 3.86732 40.8356 3.86469L41.4841 0.211174C41.4855 0.202793 41.4877 0.194557 41.4908 0.186588C41.5125 0.129835 41.5223 0.0727744 41.52 0.0154065L42.4752 0.0117188Z" fill="#9EE337"/>
<path d="M11.5353 3.66504L9.47743 15.3324C9.4757 15.3423 9.47059 15.3511 9.463 15.3576C9.45542 15.364 9.44584 15.3675 9.43594 15.3675H5.16715C5.16328 15.3675 5.15946 15.3667 5.15595 15.365C5.15244 15.3634 5.14932 15.361 5.14683 15.358C5.14434 15.355 5.14253 15.3515 5.14153 15.3477C5.14052 15.3439 5.14036 15.34 5.14103 15.3361L7.2072 3.67303C7.20822 3.67078 7.20925 3.66842 7.21027 3.66596L11.5353 3.66504Z" fill="#9EE337"/>
<path d="M40.8246 3.88369C40.8347 3.88082 40.844 3.88124 40.8526 3.88492C40.8317 3.89332 40.8177 3.91811 40.8105 3.9593C40.6831 4.69012 40.5668 5.34821 40.4617 5.93357C40.4262 6.13129 40.3964 6.3163 40.3723 6.48861C40.3385 6.7314 40.2761 6.98064 40.2343 7.2265C40.2169 7.32894 40.0997 7.99257 39.8827 9.21737C39.8528 9.3864 39.8222 9.57295 39.7911 9.77702C39.7533 10.0253 39.6952 10.2798 39.6534 10.5208C39.6036 10.8062 39.3203 12.4135 38.8034 15.3427C38.8021 15.3497 38.7984 15.356 38.7929 15.3606C38.7875 15.3651 38.7806 15.3676 38.7735 15.3676H34.234C34.2295 15.3676 34.2251 15.3667 34.221 15.3648C34.2169 15.3629 34.2133 15.3602 34.2104 15.3568C34.2075 15.3534 34.2054 15.3494 34.2042 15.3451C34.203 15.3408 34.2028 15.3364 34.2036 15.332L36.2203 3.87109C36.2899 3.88564 36.3571 3.89291 36.4219 3.89291C37.8149 3.89332 39.2079 3.89199 40.6009 3.88892C40.6765 3.88871 40.7511 3.88697 40.8246 3.88369Z" fill="#FEB328"/>
<path d="M51.2498 3.88965L50.4849 8.23219C50.4819 8.25002 50.4726 8.26617 50.4587 8.27768L49.7325 8.88711L47.2001 5.79785C47.1956 5.7923 47.1892 5.78868 47.1823 5.78771L47.1719 5.78617C47.1756 5.78515 47.1791 5.78402 47.1826 5.78279C47.8471 5.21587 48.5161 4.65008 49.1898 4.08542C49.2691 4.01903 49.3173 3.93943 49.4234 3.93022C49.4287 3.92976 49.4338 3.92769 49.438 3.92429C49.4421 3.92089 49.4452 3.91632 49.4467 3.91116C49.4471 3.90973 49.4474 3.9088 49.4476 3.90839C49.45 3.9036 49.4537 3.89957 49.4584 3.89675C49.463 3.89393 49.4683 3.89243 49.4738 3.89241L49.853 3.89118L51.2498 3.88965Z" fill="#7076CC"/>
<path d="M49.8532 3.89083L49.474 3.89206C49.4685 3.89207 49.4632 3.89358 49.4586 3.8964C49.454 3.89922 49.4502 3.90325 49.4478 3.90804C49.4476 3.90845 49.4473 3.90937 49.4469 3.91081C49.4454 3.91596 49.4424 3.92054 49.4382 3.92394C49.434 3.92734 49.4289 3.9294 49.4236 3.92986C49.3175 3.93908 49.2693 4.01868 49.19 4.08506C48.5163 4.64973 47.8473 5.21552 47.1828 5.78243L45.6523 3.91173C45.6696 3.89821 45.6891 3.89144 45.711 3.89144C47.0918 3.89062 48.4725 3.89042 49.8532 3.89083Z" fill="#9E83D2"/>
<path d="M60.7152 3.89648L59.3796 11.4924L59.363 11.5563L59.3587 11.5219C59.3582 11.5175 59.3562 11.5135 59.3532 11.5103C59.3501 11.5072 59.3461 11.5052 59.3418 11.5047C59.2584 11.4947 59.2015 11.4896 59.1712 11.4896C57.7933 11.4909 56.4855 11.491 55.2475 11.4899C55.2307 11.4899 55.1579 11.4912 55.029 11.4936C54.9545 11.4951 54.8797 11.4935 54.8047 11.489L56.1379 3.89925L60.7152 3.89648Z" fill="#FEB328"/>
<path d="M33.2112 5.59277C33.211 5.64912 33.2096 5.68466 33.2069 5.69942C32.7955 8.02671 32.4464 10.0055 32.1596 11.6358C32.1359 11.7704 32.1301 11.8106 32.0197 11.9044C30.2801 13.3847 28.9997 14.4751 28.1787 15.1756C28.0924 15.2493 27.9879 15.3661 27.8708 15.3667C27.5477 15.3682 27.2216 15.3681 26.8926 15.3664C27.1856 13.7126 27.4775 12.0603 27.7685 10.4095C27.7795 10.3477 27.7834 10.2906 27.7801 10.2383C27.7834 10.2263 27.7906 10.2143 27.8017 10.2024C27.825 10.1989 27.8403 10.194 27.8474 10.1876C27.9562 10.0893 28.0664 9.99238 28.1778 9.8969C29.8462 8.46578 31.524 7.03107 33.2112 5.59277Z" fill="#E75661"/>
<path d="M22.2121 10.3337C22.1914 10.5062 22.1761 10.6206 22.1663 10.6769C21.8889 12.2386 21.6128 13.8019 21.338 15.3668L20.2313 15.3671C20.2197 15.3671 20.2082 15.3645 20.1977 15.3596C20.1872 15.3546 20.1779 15.3474 20.1705 15.3385C19.5013 14.5233 18.5708 13.3923 17.3787 11.9456C17.3574 11.9196 17.3521 11.8766 17.3627 11.8168C17.4224 11.4861 17.7791 9.47212 18.4329 5.77475C18.437 5.7516 18.4435 5.72947 18.4525 5.70837C18.4609 5.7053 18.4693 5.70438 18.4777 5.7056C18.4849 5.70683 18.4916 5.71134 18.4977 5.71913C18.6129 5.86664 18.7162 5.99275 18.8078 6.09745C18.8701 6.16854 18.9299 6.24128 18.9873 6.31565C18.9994 6.33143 19.0567 6.40201 19.1594 6.5274C19.8623 7.38628 20.4395 8.0918 20.8909 8.64397C21.0161 8.79722 21.1295 8.93706 21.2311 9.06347C21.4083 9.28413 21.5235 9.42315 21.5765 9.48052C21.6234 9.53133 21.6794 9.6015 21.7443 9.69104C21.8086 9.77985 21.898 9.86867 21.9705 9.96825C22.0187 10.034 22.0873 10.1267 22.1764 10.2464C22.1772 10.2476 22.1844 10.2545 22.1979 10.267C22.2127 10.2807 22.2174 10.3029 22.2121 10.3337Z" fill="#A3D301"/>
<path d="M47.1723 5.78613L47.1827 5.78767C47.1896 5.78865 47.196 5.79227 47.2005 5.79781L49.7329 8.88707C48.1114 10.2559 47.0945 11.1158 46.6821 11.4668C46.638 11.5041 46.5935 11.5228 46.5484 11.523C44.1625 11.5255 42.1974 11.525 40.6532 11.5215C40.5828 11.5212 40.5143 11.5322 40.4476 11.5298C40.4448 11.5297 40.4421 11.5288 40.4399 11.5272C40.4376 11.5257 40.4358 11.5235 40.4347 11.5209C40.4336 11.5184 40.4333 11.5155 40.4338 11.5128C40.4343 11.5101 40.4356 11.5075 40.4375 11.5055C40.5022 11.4371 40.562 11.3796 40.6169 11.3331C42.8031 9.48544 44.9882 7.63645 47.1723 5.78613Z" fill="#00C7DE"/>
<path d="M27.779 10.2383C27.7823 10.2905 27.7784 10.3476 27.7673 10.4095C27.4764 12.0602 27.1844 13.7125 26.8915 15.3664L26.3635 15.366L24.4805 13.0506L27.779 10.2383Z" fill="#F47172"/>
<path d="M22.2488 10.3213L24.4607 13.0399C24.4639 13.0579 24.4597 13.0719 24.4481 13.0817C23.0464 14.277 22.2493 14.9603 22.0567 15.1316C21.976 15.2035 21.8911 15.2704 21.802 15.3323C21.7995 15.3339 21.7976 15.3362 21.7964 15.3389C21.7952 15.3416 21.7947 15.3446 21.7951 15.3475C21.7955 15.3505 21.7967 15.3532 21.7985 15.3555C21.8004 15.3578 21.8029 15.3596 21.8056 15.3605L21.8225 15.3664L21.3379 15.3667C21.6126 13.8018 21.8887 12.2385 22.1661 10.6769C22.176 10.6205 22.1912 10.5061 22.2119 10.3336C22.2279 10.3256 22.2402 10.3215 22.2488 10.3213Z" fill="#FEB328"/>
<path d="M54.8079 11.4922L54.1127 15.3676L51.3732 15.367C51.3703 15.367 51.3675 15.3664 51.3649 15.3651C51.3623 15.3639 51.36 15.3621 51.3581 15.3599C51.3563 15.3577 51.3549 15.3551 51.3542 15.3522C51.3534 15.3494 51.3533 15.3465 51.3538 15.3436L52.0296 11.5131C52.0304 11.5084 52.0328 11.5042 52.0364 11.5012C52.04 11.4982 52.0446 11.4965 52.0493 11.4965L54.8079 11.4922Z" fill="#F47172"/>
<path d="M54.8034 11.4883C54.8784 11.4928 54.9532 11.4943 55.0278 11.4929C55.1567 11.4904 55.2295 11.4892 55.2463 11.4892C56.4842 11.4902 57.7921 11.4901 59.1699 11.4889C59.2003 11.4889 59.2571 11.4939 59.3405 11.504C59.3448 11.5045 59.3488 11.5065 59.3519 11.5096C59.355 11.5127 59.3569 11.5168 59.3574 11.5212L59.3617 11.5556L58.696 15.3668H54.1113L54.8065 11.4914C54.8055 11.4903 54.8045 11.4893 54.8034 11.4883Z" fill="#FE960B"/>
<path d="M58.6973 15.3673L59.3629 11.5561L59.3795 11.4922H61.8707C61.875 11.4922 61.8792 11.4931 61.883 11.4949C61.8869 11.4967 61.8903 11.4993 61.893 11.5025C61.8958 11.5058 61.8978 11.5096 61.8988 11.5137C61.8999 11.5178 61.9001 11.5221 61.8993 11.5263L61.2257 15.3452C61.2246 15.3511 61.2215 15.3565 61.2169 15.3604C61.2123 15.3643 61.2065 15.3664 61.2005 15.3664L58.6973 15.3673Z" fill="#F47172"/>
<path d="M24.4812 13.0508L26.3642 15.3662L21.8225 15.3665L21.8056 15.3607C21.8028 15.3597 21.8003 15.358 21.7985 15.3557C21.7966 15.3534 21.7954 15.3506 21.7951 15.3477C21.7947 15.3447 21.7951 15.3418 21.7963 15.3391C21.7975 15.3364 21.7995 15.3341 21.8019 15.3324C21.891 15.2705 21.976 15.2036 22.0567 15.1317C22.2493 14.9604 23.0464 14.2771 24.448 13.0818C24.4597 13.072 24.4639 13.0581 24.4606 13.04L24.4812 13.0508Z" fill="#F5654D"/>
<path d="M28.1973 20.9651V18.4544H28.7343V20.9651H28.1973ZM28.4483 19.9922V19.5807H29.8885V19.9922H28.4483ZM28.4483 18.8658V18.4544H29.9687V18.8658H28.4483Z" fill="#8AC87C"/>
<path d="M30.2541 20.9651V18.4544H30.7911V20.9651H30.2541Z" fill="#8AC87C"/>
<path d="M31.1395 20.9651V18.4544H31.8334L32.9493 20.6721L32.7784 20.714V18.4544H33.3015V20.9651H32.6075L31.4917 18.7473L31.6625 18.7054V20.9651H31.1395Z" fill="#8AC87C"/>
<path d="M34.378 20.9651V18.8658H33.5585V18.4544H35.7345V18.8658H34.915V20.9651H34.378Z" fill="#8AC87C"/>
<path d="M35.9921 20.9651V18.4544H36.5291V20.9651H35.9921ZM36.2432 20.9651V20.5536H37.8612V20.9651H36.2432ZM36.2432 19.8841V19.4796H37.7391V19.8841H36.2432ZM36.2432 18.8658V18.4544H37.8193V18.8658H36.2432Z" fill="#8AC87C"/>
<path d="M39.2687 20.9999C39.0873 20.9999 38.9199 20.9685 38.7665 20.9058C38.6131 20.8407 38.4794 20.75 38.3655 20.6338C38.2539 20.5176 38.1667 20.3804 38.104 20.2223C38.0412 20.0619 38.0098 19.8876 38.0098 19.6993C38.0098 19.511 38.04 19.3389 38.1005 19.1832C38.1632 19.0274 38.2504 18.8926 38.362 18.7787C38.4759 18.6624 38.6096 18.5741 38.763 18.5137C38.9165 18.4509 39.085 18.4195 39.2687 18.4195C39.4755 18.4195 39.6615 18.4602 39.8266 18.5415C39.994 18.6206 40.13 18.7333 40.2346 18.8798C40.3415 19.0239 40.4066 19.1936 40.4298 19.3889H39.9068C39.8766 19.2099 39.8033 19.0751 39.6871 18.9844C39.5709 18.8914 39.4325 18.8449 39.2721 18.8449C39.1303 18.8449 39.0048 18.8786 38.8955 18.946C38.7886 19.0135 38.7049 19.1111 38.6445 19.239C38.584 19.3645 38.5538 19.5168 38.5538 19.6958C38.5538 19.8771 38.584 20.034 38.6445 20.1665C38.7072 20.2967 38.7932 20.3978 38.9025 20.4699C39.0118 20.5396 39.1373 20.5745 39.2791 20.5745C39.4302 20.5745 39.5639 20.5292 39.6801 20.4385C39.7964 20.3479 39.8719 20.213 39.9068 20.034H40.4368C40.4066 20.2293 40.338 20.4002 40.2311 20.5466C40.1241 20.6907 39.9881 20.8023 39.8231 20.8814C39.658 20.9604 39.4732 20.9999 39.2687 20.9999Z" fill="#8AC87C"/>
<path d="M40.6949 20.9651V18.4544H41.2319V20.9651H40.6949ZM42.3198 20.9651V18.4544H42.8568V20.9651H42.3198ZM40.9459 19.4517H42.5639V19.8631H40.9459V19.4517Z" fill="#8AC87C"/>
<path d="M44.9008 20.9964C44.5753 20.9964 44.315 20.9244 44.1197 20.7802C43.9244 20.6338 43.8105 20.4281 43.778 20.163H44.2941C44.3103 20.2979 44.3754 20.4048 44.4893 20.4838C44.6032 20.5606 44.7485 20.5989 44.9252 20.5989C45.0693 20.5989 45.1798 20.5733 45.2565 20.5222C45.3355 20.4711 45.375 20.4025 45.375 20.3165C45.375 20.2351 45.3518 20.17 45.3053 20.1212C45.2588 20.07 45.1786 20.0294 45.0647 19.9991L44.5974 19.8701C44.358 19.8027 44.1825 19.7109 44.0709 19.5946C43.9616 19.4761 43.907 19.3285 43.907 19.1518C43.907 19.0007 43.9454 18.8705 44.0221 18.7612C44.1011 18.6496 44.2115 18.5648 44.3533 18.5067C44.4951 18.4462 44.6614 18.416 44.852 18.416C45.1449 18.416 45.3785 18.4858 45.5529 18.6252C45.7272 18.7624 45.826 18.9449 45.8493 19.1727H45.3332C45.31 19.0495 45.253 18.9588 45.1623 18.9007C45.074 18.8426 44.9601 18.8135 44.8206 18.8135C44.6997 18.8135 44.6032 18.8368 44.5312 18.8833C44.4591 18.9298 44.4231 18.9925 44.4231 19.0716C44.4231 19.132 44.4428 19.1878 44.4824 19.239C44.5219 19.2878 44.6044 19.3296 44.7299 19.3645L45.1972 19.4935C45.4436 19.5609 45.6203 19.6539 45.7272 19.7725C45.8365 19.8887 45.8911 20.0363 45.8911 20.2153C45.8911 20.4664 45.804 20.6594 45.6296 20.7942C45.4552 20.929 45.2123 20.9964 44.9008 20.9964Z" fill="#8AC87C"/>
<path d="M47.3604 20.9999C47.1744 20.9999 47.0024 20.9685 46.8443 20.9058C46.6885 20.843 46.5525 20.7547 46.4363 20.6408C46.3224 20.5245 46.2329 20.3874 46.1678 20.2293C46.105 20.0689 46.0737 19.8922 46.0737 19.6993C46.0737 19.4435 46.1283 19.2204 46.2376 19.0297C46.3468 18.8368 46.4979 18.6868 46.6909 18.5799C46.8861 18.473 47.1082 18.4195 47.3569 18.4195C47.6103 18.4195 47.8335 18.473 48.0264 18.5799C48.2194 18.6868 48.3705 18.8368 48.4797 19.0297C48.5913 19.2227 48.6471 19.447 48.6471 19.7027C48.6471 19.8934 48.6146 20.0689 48.5495 20.2293C48.4867 20.3874 48.3972 20.5245 48.281 20.6408C48.1671 20.7547 48.0311 20.843 47.873 20.9058C47.7172 20.9685 47.5464 20.9999 47.3604 20.9999ZM47.3569 20.5745C47.5034 20.5745 47.6324 20.5373 47.744 20.4629C47.8556 20.3885 47.9427 20.2862 48.0055 20.1561C48.0706 20.0236 48.1031 19.8701 48.1031 19.6958C48.1031 19.5237 48.0718 19.3738 48.009 19.2459C47.9462 19.1181 47.859 19.0193 47.7475 18.9495C47.6359 18.8798 47.5057 18.8449 47.3569 18.8449C47.2104 18.8449 47.0814 18.8798 46.9698 18.9495C46.8582 19.0193 46.7711 19.1181 46.7083 19.2459C46.6479 19.3715 46.6176 19.5214 46.6176 19.6958C46.6176 19.8724 46.649 20.027 46.7118 20.1595C46.7746 20.2897 46.8617 20.392 46.9733 20.4664C47.0849 20.5385 47.2128 20.5745 47.3569 20.5745Z" fill="#8AC87C"/>
<path d="M48.9256 20.9651V18.4544H49.4626V20.9651H48.9256ZM49.1766 20.9651V20.5536H50.6691V20.9651H49.1766Z" fill="#8AC87C"/>
<path d="M51.8616 20.9999C51.5036 20.9999 51.2351 20.9023 51.0561 20.707C50.8794 20.5094 50.791 20.2223 50.791 19.8457V18.4544H51.328V19.9399C51.328 20.1584 51.3757 20.3188 51.471 20.4211C51.5663 20.5234 51.6977 20.5745 51.8651 20.5745C52.0324 20.5745 52.1638 20.5234 52.2591 20.4211C52.3544 20.3188 52.4021 20.1595 52.4021 19.9434V18.4544H52.9391V19.8527C52.9391 20.2246 52.8496 20.5094 52.6706 20.707C52.4916 20.9023 52.2219 20.9999 51.8616 20.9999Z" fill="#8AC87C"/>
<path d="M53.9894 20.9651V18.8658H53.1699V18.4544H55.3458V18.8658H54.5264V20.9651H53.9894Z" fill="#8AC87C"/>
<path d="M55.6034 20.9651V18.4544H56.1404V20.9651H55.6034Z" fill="#8AC87C"/>
<path d="M57.7058 20.9999C57.5198 20.9999 57.3478 20.9685 57.1897 20.9058C57.034 20.843 56.898 20.7547 56.7817 20.6408C56.6678 20.5245 56.5783 20.3874 56.5132 20.2293C56.4505 20.0689 56.4191 19.8922 56.4191 19.6993C56.4191 19.4435 56.4737 19.2204 56.583 19.0297C56.6922 18.8368 56.8433 18.6868 57.0363 18.5799C57.2316 18.473 57.4536 18.4195 57.7023 18.4195C57.9557 18.4195 58.1789 18.473 58.3718 18.5799C58.5648 18.6868 58.7159 18.8368 58.8252 19.0297C58.9367 19.2227 58.9925 19.447 58.9925 19.7027C58.9925 19.8934 58.96 20.0689 58.8949 20.2293C58.8321 20.3874 58.7426 20.5245 58.6264 20.6408C58.5125 20.7547 58.3765 20.843 58.2184 20.9058C58.0627 20.9685 57.8918 20.9999 57.7058 20.9999ZM57.7023 20.5745C57.8488 20.5745 57.9778 20.5373 58.0894 20.4629C58.201 20.3885 58.2881 20.2862 58.3509 20.1561C58.416 20.0236 58.4486 19.8701 58.4486 19.6958C58.4486 19.5237 58.4172 19.3738 58.3544 19.2459C58.2916 19.1181 58.2045 19.0193 58.0929 18.9495C57.9813 18.8798 57.8511 18.8449 57.7023 18.8449C57.5559 18.8449 57.4268 18.8798 57.3153 18.9495C57.2037 19.0193 57.1165 19.1181 57.0537 19.2459C56.9933 19.3715 56.9631 19.5214 56.9631 19.6958C56.9631 19.8724 56.9944 20.027 57.0572 20.1595C57.12 20.2897 57.2072 20.392 57.3187 20.4664C57.4303 20.5385 57.5582 20.5745 57.7023 20.5745Z" fill="#8AC87C"/>
<path d="M59.271 20.9651V18.4544H59.9649L61.0808 20.6721L60.9099 20.714V18.4544H61.433V20.9651H60.739L59.6232 18.7473L59.794 18.7054V20.9651H59.271Z" fill="#8AC87C"/>
<path d="M62.8129 20.9964C62.4874 20.9964 62.2271 20.9244 62.0318 20.7802C61.8365 20.6338 61.7226 20.4281 61.6901 20.163H62.2061C62.2224 20.2979 62.2875 20.4048 62.4014 20.4838C62.5153 20.5606 62.6606 20.5989 62.8373 20.5989C62.9814 20.5989 63.0919 20.5733 63.1686 20.5222C63.2476 20.4711 63.2871 20.4025 63.2871 20.3165C63.2871 20.2351 63.2639 20.17 63.2174 20.1212C63.1709 20.07 63.0907 20.0294 62.9768 19.9991L62.5095 19.8701C62.2701 19.8027 62.0946 19.7109 61.983 19.5946C61.8737 19.4761 61.8191 19.3285 61.8191 19.1518C61.8191 19.0007 61.8574 18.8705 61.9342 18.7612C62.0132 18.6496 62.1236 18.5648 62.2654 18.5067C62.4072 18.4462 62.5734 18.416 62.7641 18.416C63.057 18.416 63.2906 18.4858 63.465 18.6252C63.6393 18.7624 63.7381 18.9449 63.7614 19.1727H63.2453C63.222 19.0495 63.1651 18.9588 63.0744 18.9007C62.9861 18.8426 62.8722 18.8135 62.7327 18.8135C62.6118 18.8135 62.5153 18.8368 62.4433 18.8833C62.3712 18.9298 62.3352 18.9925 62.3352 19.0716C62.3352 19.132 62.3549 19.1878 62.3944 19.239C62.434 19.2878 62.5165 19.3296 62.642 19.3645L63.1093 19.4935C63.3557 19.5609 63.5324 19.6539 63.6393 19.7725C63.7486 19.8887 63.8032 20.0363 63.8032 20.2153C63.8032 20.4664 63.716 20.6594 63.5417 20.7942C63.3673 20.929 63.1244 20.9964 62.8129 20.9964Z" fill="#8AC87C"/>
</g>
<defs>
<clipPath id="clip0_186638_47568">
<rect width="64.1875" height="21" fill="white"/>
</clipPath>
</defs>
</svg>
